<svg xmlns="http://www.w3.org/2000/svg" viewBox="0 0 1366 768">
  <defs>
    <style>
      .cls-1 {
        fill-rule: evenodd;
      }
    </style>
  </defs>
  <path id="wave" class="cls-1" d="M0,0H1366V135c-44.96-13.366-87.45,32.711-128,40-42.68,7.673-80.28-34.815-119-42-44.42-8.244-80.92,34.711-120,42-61.087,11.392-77.81-54.2-140-42-39.184,7.686-73.14,50.735-120,42-40.605-7.569-65.282-45.947-111-43-49.337,3.18-80.683,54.045-132,43-39.166-8.43-60.547-35.627-102-43-40.316-7.171-78.27,35.071-113,43-47.453,10.834-84.554-35.317-126-43C96.594,121.174,74.494,190.469,0,171V0Z"/>
</svg>
