<?xml version="1.0" encoding="iso-8859-1"?>
<!-- Generator: Adobe Illustrator 16.0.0, SVG Export Plug-In . SVG Version: 6.00 Build 0)  -->
<!DOCTYPE svg PUBLIC "-//W3C//DTD SVG 1.1//EN" "http://www.w3.org/Graphics/SVG/1.1/DTD/svg11.dtd">
<svg version="1.1" id="China" xmlns="http://www.w3.org/2000/svg" xmlns:xlink="http://www.w3.org/1999/xlink" x="0px" y="0px"
	 width="4000px" height="2498px" viewBox="0 0 4000 2498" style="enable-background:new 0 0 4000 2498;" xml:space="preserve">
<rect x="0" style="fill:#E42B26;" width="4000" height="2498"/>
<polygon style="fill:#FEDC00;" points="665,269.435 753.237,541 1038.777,541 807.77,708.992 896.007,980.635 665,812.837 
	433.993,980.693 522.23,708.982 291.223,541 576.763,541 "/>
<polygon style="fill:#FEDC00;" points="1337.774,180.602 1328.747,266.456 1407.608,301.571 1323.149,319.558 1314.112,405.433 
	1270.947,330.681 1186.503,348.63 1244.288,284.439 1201.146,209.637 1280.008,244.752 "/>
<polygon style="fill:#FEDC00;" points="1616.431,459.164 1576.868,535.891 1637.614,597.227 1552.384,583.344 1512.804,660.088 
	1499.704,574.768 1414.502,560.855 1491.64,522.005 1478.578,436.646 1539.325,497.983 "/>
<polygon style="fill:#FEDC00;" points="1644.808,872.139 1575.699,923.874 1603.547,1005.584 1532.945,955.862 1463.815,1007.603 
	1489.305,925.133 1418.742,875.396 1505.102,874.148 1530.644,791.66 1558.49,873.373 "/>
<polygon style="fill:#FEDC00;" points="1402.481,1167.803 1319.446,1191.42 1316.251,1277.687 1268.085,1206.015 1185.027,1229.632 
	1238.309,1161.719 1190.183,1090.047 1271.284,1119.747 1324.622,1051.836 1321.424,1138.104 "/>
</svg>
